<?xml version="1.0" standalone="no"?>
<!DOCTYPE svg PUBLIC "-//W3C//DTD SVG 20010904//EN"
 "http://www.w3.org/TR/2001/REC-SVG-20010904/DTD/svg10.dtd">
<svg version="1.0" xmlns="http://www.w3.org/2000/svg"
 width="598.000000pt" height="264.000000pt" viewBox="0 0 598.000000 264.000000"
 preserveAspectRatio="xMidYMid meet">

<g transform="translate(0.000000,264.000000) scale(0.100000,-0.100000)"
fill="#000000" stroke="none">
<path d="M675 2311 l-450 -188 3 -49 c5 -85 32 -343 53 -509 54 -439 131 -769
200 -866 23 -32 97 -85 203 -143 37 -21 76 -46 86 -56 10 -10 24 -20 31 -23
11 -4 8 -16 -14 -57 -16 -29 -26 -55 -23 -58 3 -3 41 2 83 11 149 30 149 30
224 1 l69 -27 68 26 c66 27 68 27 152 13 47 -8 100 -18 118 -22 41 -8 42 7 5
60 l-26 39 29 24 c16 13 70 46 119 74 182 104 205 130 259 291 64 190 158 797
182 1173 l7 100 -139 57 c-77 31 -281 115 -454 187 -173 72 -319 130 -325 130
-5 0 -212 -85 -460 -188z m783 38 c174 -72 358 -148 407 -169 50 -21 107 -45
129 -54 l39 -16 -7 -83 c-14 -165 -57 -532 -82 -690 -46 -298 -92 -487 -142
-587 -30 -60 -97 -113 -232 -184 -62 -33 -74 -36 -103 -27 -17 6 -49 13 -71
16 -21 4 -35 10 -30 15 5 4 54 32 109 60 55 29 130 72 167 95 58 38 70 52 97
107 56 119 109 370 155 738 30 238 50 459 43 466 -3 3 -183 79 -401 170 l-396
164 -112 -46 c-108 -44 -618 -254 -665 -274 -29 -12 -29 -22 -3 -277 49 -468
117 -818 187 -956 27 -55 105 -111 268 -194 52 -26 95 -51 95 -54 0 -8 -38
-19 -68 -19 -12 0 -31 -5 -41 -12 -15 -9 -31 -4 -96 31 -118 63 -184 110 -211
150 -72 106 -156 511 -214 1036 -11 105 -22 228 -23 274 l-2 85 90 38 c150 63
790 327 793 328 2 0 146 -59 320 -131z m-122 -73 c99 -41 271 -113 384 -160
l205 -85 -3 -68 c-3 -81 -56 -529 -77 -663 -39 -239 -94 -441 -138 -504 -25
-35 -120 -97 -257 -167 l-105 -53 -200 -2 -200 -2 -135 69 c-175 89 -228 129
-261 198 -31 64 -80 256 -108 426 -40 241 -98 752 -86 763 13 13 761 321 781
321 12 1 102 -32 200 -73z m87 -1739 c72 -18 78 -24 47 -47 l-25 -19 25 -45
c13 -25 22 -47 20 -50 -3 -2 -28 2 -57 9 -80 21 -269 37 -363 30 -107 -7 -226
-24 -258 -36 -36 -14 -38 -5 -7 46 15 26 25 48 23 49 -1 2 -13 9 -25 15 -13 6
-23 15 -23 20 0 9 60 28 135 41 78 14 440 5 508 -13z m-247 -152 c-11 -8 -27
-15 -36 -15 -9 0 -25 7 -36 15 -17 13 -15 14 36 14 51 0 53 -1 36 -14z"/>
<path d="M1130 2190 c0 -6 -12 -15 -27 -21 -20 -7 -23 -13 -15 -21 7 -7 12
-21 12 -33 0 -17 6 -20 40 -20 34 0 40 3 40 20 0 12 5 26 12 33 8 8 5 14 -15
21 -15 6 -27 15 -27 21 0 5 -4 10 -10 10 -5 0 -10 -5 -10 -10z"/>
<path d="M983 2135 c-16 -18 -6 -45 17 -45 14 0 38 29 28 34 -2 1 -10 7 -18
13 -11 8 -18 8 -27 -2z"/>
<path d="M1263 2135 c-16 -18 -6 -45 17 -45 24 0 33 28 16 46 -17 17 -18 17
-33 -1z"/>
<path d="M885 2091 c-7 -12 12 -24 25 -16 11 7 4 25 -10 25 -5 0 -11 -4 -15
-9z"/>
<path d="M1362 2088 c5 -15 28 -18 29 -3 0 6 -7 12 -17 13 -10 3 -15 -1 -12
-10z"/>
<path d="M1098 1884 c-33 -17 -48 -43 -48 -79 0 -43 17 -63 80 -95 33 -16 64
-39 70 -49 25 -47 0 -91 -51 -91 -41 0 -68 16 -82 48 l-11 27 -4 -34 c-4 -42
5 -51 56 -58 80 -11 132 23 132 85 0 50 -13 66 -85 106 -74 42 -90 63 -75 100
8 23 15 26 60 26 44 0 52 -3 62 -25 15 -33 28 -32 28 4 0 24 -6 31 -31 40 -42
15 -68 13 -101 -5z"/>
<path d="M773 1879 c15 -9 17 -29 17 -182 0 -155 -2 -175 -20 -205 l-20 -33
20 11 c47 25 54 53 58 229 2 91 9 172 14 179 8 9 -1 12 -38 12 -38 -1 -45 -3
-31 -11z"/>
<path d="M1373 1879 c15 -9 17 -26 17 -125 0 -170 22 -204 131 -204 64 0 104
21 118 61 6 18 11 80 11 140 0 84 3 111 16 123 14 15 12 16 -25 16 l-41 0 21
-21 c20 -20 21 -29 17 -129 -5 -100 -17 -145 -42 -162 -6 -4 -35 -8 -64 -8
-43 0 -58 5 -77 25 -24 23 -25 30 -25 149 0 109 2 126 18 135 13 8 4 10 -38
10 -42 0 -51 -2 -37 -10z"/>
<path d="M577 1244 c-11 -12 -8 -59 5 -72 19 -19 28 -14 28 16 0 31 -21 67
-33 56z"/>
<path d="M1682 1238 c-14 -14 -16 -78 -2 -78 22 0 41 72 22 84 -5 3 -14 0 -20
-6z"/>
<path d="M632 1178 c-7 -7 -12 -18 -12 -24 0 -8 -8 -11 -22 -8 -13 3 -33 8
-45 11 -30 7 -31 -20 -2 -40 20 -14 20 -16 3 -25 -18 -10 -18 -11 0 -31 29
-32 76 -31 109 1 29 30 36 58 14 58 -8 0 -24 -11 -37 -25 -18 -19 -27 -22 -41
-14 -25 13 -24 33 1 26 24 -6 70 34 70 63 0 22 -19 27 -38 8z"/>
<path d="M1612 1163 c3 -26 24 -43 72 -58 18 -5 18 -7 -4 -22 -22 -15 -24 -15
-42 10 -22 30 -48 36 -48 11 0 -31 21 -53 57 -60 l37 -7 -24 -19 c-23 -19 -25
-19 -37 -1 -34 50 -53 57 -53 19 0 -16 11 -32 29 -45 35 -25 59 -26 89 -5 23
16 30 44 10 44 -6 0 -1 11 12 25 18 19 20 27 12 38 -9 11 -7 18 8 32 11 10 20
22 20 27 0 12 -37 10 -60 -4 -16 -10 -22 -8 -40 15 -27 34 -42 34 -38 0z"/>
<path d="M665 1036 c-32 -30 -30 -29 -56 -15 -30 16 -53 4 -39 -20 24 -47 120
-31 134 22 9 35 -9 41 -39 13z"/>
<path d="M689 969 c-16 -16 -33 -22 -61 -21 -43 2 -49 -11 -15 -32 38 -25 93
-9 108 32 14 37 -4 49 -32 21z"/>
<path d="M1550 966 c0 -23 22 -55 38 -57 4 0 18 -2 31 -5 26 -5 71 19 71 38 0
7 -14 9 -42 5 -35 -5 -44 -2 -60 19 -25 31 -38 31 -38 0z"/>
<path d="M726 924 c-9 -8 -16 -24 -16 -35 0 -16 -5 -18 -25 -13 -14 3 -37 3
-51 0 -21 -6 -24 -9 -14 -21 16 -19 43 -19 83 1 45 23 67 44 67 66 0 22 -23
24 -44 2z"/>
<path d="M1512 914 c4 -35 83 -80 123 -70 42 11 24 31 -28 30 -41 0 -47 2 -47
21 0 24 -18 45 -38 45 -9 0 -12 -9 -10 -26z"/>
<path d="M1465 897 c-12 -48 62 -115 112 -102 24 6 25 8 10 22 -8 9 -29 16
-46 17 -26 1 -31 5 -31 27 0 14 -9 34 -20 44 -18 17 -19 16 -25 -8z"/>
<path d="M782 898 c-7 -7 -12 -25 -12 -41 0 -23 -3 -27 -19 -22 -23 7 -73 -14
-68 -29 2 -6 15 -12 29 -14 38 -5 98 51 98 89 0 31 -9 36 -28 17z"/>
<path d="M1028 903 c12 -2 32 -2 45 0 12 2 2 4 -23 4 -25 0 -35 -2 -22 -4z"/>
<path d="M1218 903 c12 -2 30 -2 40 0 9 3 -1 5 -23 4 -22 0 -30 -2 -17 -4z"/>
<path d="M925 880 c-3 -5 -2 -10 4 -10 5 0 13 5 16 10 3 6 2 10 -4 10 -5 0
-13 -4 -16 -10z"/>
<path d="M1340 880 c20 -13 33 -13 25 0 -3 6 -14 10 -23 10 -15 0 -15 -2 -2
-10z"/>
<path d="M967 864 c-30 -9 -47 -20 -44 -27 3 -7 17 -41 31 -77 l26 -65 83 -26
82 -26 6 56 6 56 1 -52 c1 -29 4 -53 7 -53 2 0 35 10 71 22 l67 22 32 70 c22
48 29 75 23 83 -13 16 -108 35 -155 31 l-38 -3 -6 -60 -6 -60 -1 49 c-1 33 -8
53 -19 62 -23 18 -106 16 -166 -2z"/>
<path d="M2330 2081 c0 -10 7 -24 15 -31 23 -19 21 -211 -2 -247 -16 -25 -16
-26 7 -45 50 -41 74 7 78 162 3 101 6 117 23 130 13 10 18 22 13 33 -5 14 -19
17 -70 17 -56 0 -64 -2 -64 -19z"/>
<path d="M3548 2093 c-13 -3 -88 -154 -88 -177 0 -3 -11 -30 -25 -58 -14 -29
-23 -58 -21 -65 7 -17 103 -18 109 0 2 6 -4 21 -15 33 -31 35 -14 54 47 54 45
0 55 -3 60 -21 5 -14 1 -25 -11 -33 -11 -8 -15 -20 -11 -30 9 -23 123 -20 120
4 -1 8 -26 78 -55 155 -55 144 -61 152 -110 138z m28 -108 c20 -50 18 -57 -18
-53 -35 3 -37 12 -18 64 13 32 18 30 36 -11z"/>
<path d="M2545 2079 c-4 -6 2 -21 14 -33 18 -19 21 -35 21 -112 0 -78 -3 -92
-21 -107 -33 -29 -9 -47 62 -47 51 0 59 3 59 19 0 10 -7 24 -15 31 -11 10 -15
36 -15 112 0 78 3 100 15 104 8 4 15 15 15 25 0 17 -8 19 -64 19 -36 0 -68 -5
-71 -11z"/>
<path d="M2776 2078 c-15 -49 -16 -69 -1 -74 9 -4 23 0 33 9 23 20 82 32 82
16 0 -6 -29 -51 -65 -99 -48 -64 -65 -96 -65 -119 l0 -31 119 0 c131 0 131 0
131 66 0 26 -4 34 -18 34 -9 0 -23 -9 -30 -20 -9 -15 -23 -20 -57 -20 -25 0
-45 3 -45 8 0 4 32 49 70 99 44 58 70 102 70 118 l0 25 -110 0 c-80 0 -112 -3
-114 -12z"/>
<path d="M3107 2083 c-4 -3 -7 -24 -7 -45 0 -40 12 -48 39 -24 20 17 77 30 84
19 3 -5 -26 -50 -64 -101 -54 -71 -69 -99 -67 -120 l3 -27 120 0 120 0 3 48
c3 53 -11 62 -43 27 -13 -14 -31 -20 -62 -20 -23 0 -43 2 -43 5 0 3 32 47 70
99 46 61 70 102 70 119 l0 27 -108 0 c-60 0 -112 -3 -115 -7z"/>
<path d="M3780 2085 c0 -3 23 -37 51 -75 45 -62 49 -73 38 -88 -8 -9 -31 -38
-52 -64 -22 -26 -36 -51 -32 -57 9 -16 105 -14 105 2 0 7 -5 18 -11 24 -9 9
-8 18 5 37 21 33 29 32 55 0 16 -20 18 -30 10 -40 -24 -29 -2 -44 60 -44 33 0
63 5 66 10 4 6 -17 42 -45 80 l-52 70 52 65 c28 35 49 69 45 75 -3 5 -28 10
-56 10 -50 0 -62 -13 -38 -37 9 -9 8 -18 -5 -37 -9 -15 -21 -26 -26 -26 -19 0
-41 47 -34 74 l6 26 -71 0 c-39 0 -71 -2 -71 -5z"/>
<path d="M2403 1469 c-41 -12 -63 -44 -63 -89 0 -42 21 -66 88 -99 28 -14 42
-28 42 -41 0 -29 -65 -28 -96 1 -28 27 -44 17 -44 -26 0 -40 11 -45 91 -45 72
0 112 18 129 60 19 46 2 73 -72 112 -63 33 -83 62 -56 79 19 13 60 1 76 -22 7
-10 19 -19 26 -19 19 0 30 61 14 76 -18 17 -97 25 -135 13z"/>
<path d="M2749 1468 c-9 -7 -36 -60 -59 -118 -23 -58 -48 -115 -56 -127 -27
-43 -19 -53 41 -53 43 0 55 3 55 15 0 9 -7 18 -15 21 -21 9 -19 41 4 54 11 5
33 10 50 10 47 0 83 -49 46 -64 -8 -3 -15 -12 -15 -21 0 -12 13 -15 61 -15 73
0 73 -13 2 175 -43 114 -53 130 -74 133 -13 2 -31 -3 -40 -10z m41 -114 c0 -7
3 -20 6 -29 6 -14 1 -16 -27 -13 -36 3 -39 12 -18 67 10 25 11 25 25 7 8 -11
14 -25 14 -32z"/>
<path d="M3535 1473 c-54 -6 -64 -18 -37 -46 19 -20 22 -34 22 -115 0 -73 -3
-94 -15 -98 -8 -4 -15 -15 -15 -26 0 -19 6 -20 104 -16 94 3 107 5 130 27 33
32 35 85 4 118 -17 18 -19 26 -10 35 16 16 15 70 -1 92 -13 18 -76 36 -117 34
-14 -1 -43 -3 -65 -5z m123 -85 c3 -37 3 -38 -32 -38 -35 0 -36 1 -36 41 0 39
1 40 33 37 29 -3 32 -6 35 -40z m10 -100 c19 -16 14 -56 -8 -68 -11 -6 -31 -8
-45 -4 -21 5 -25 12 -25 44 0 21 6 41 13 43 15 6 47 -2 65 -15z"/>
<path d="M4265 1473 c-54 -6 -64 -18 -37 -46 19 -20 22 -34 22 -114 0 -82 -2
-92 -22 -105 -35 -23 -13 -38 58 -38 66 0 82 13 49 40 -8 7 -15 28 -15 46 0
55 30 44 66 -24 28 -52 34 -57 67 -60 21 -2 37 1 37 7 0 6 -14 34 -32 62 -21
34 -28 56 -22 64 43 58 46 66 40 100 -4 20 -16 41 -29 49 -24 16 -120 26 -182
19z m119 -49 c11 -4 16 -19 16 -46 l0 -39 -37 3 c-33 3 -38 7 -41 31 -6 52 15
69 62 51z"/>
<path d="M4693 1472 c-7 -5 -35 -64 -63 -132 -28 -68 -55 -129 -60 -134 -25
-25 -10 -36 50 -36 46 0 60 3 60 15 0 8 -9 19 -20 25 -11 6 -20 15 -20 20 0
20 34 40 69 40 56 0 79 -33 46 -67 -24 -23 -8 -33 56 -33 58 0 73 11 50 35 -5
6 -27 61 -50 123 -22 62 -45 122 -51 132 -11 20 -45 26 -67 12z m36 -109 c15
-52 15 -53 -19 -53 -33 0 -36 9 -19 59 14 41 26 39 38 -6z"/>
<path d="M3010 1454 c0 -10 7 -25 15 -35 14 -15 14 -26 1 -109 -8 -51 -20 -98
-25 -103 -25 -25 -11 -37 44 -37 44 0 55 3 55 16 0 9 -7 22 -16 29 -14 10 -16
23 -9 79 9 84 18 77 54 -40 26 -85 28 -89 57 -92 38 -4 46 7 69 88 9 36 22 76
28 90 l10 25 7 -25 c15 -47 11 -130 -5 -136 -8 -4 -15 -12 -15 -20 0 -13 50
-20 105 -14 29 3 29 5 12 48 -20 51 -34 212 -18 212 6 0 11 9 11 20 0 18 -7
20 -58 20 l-58 0 -32 -106 c-18 -59 -36 -103 -40 -100 -4 4 -21 51 -37 104
l-31 97 -62 3 c-53 3 -62 0 -62 -14z"/>
<path d="M3815 1459 c-4 -5 0 -18 9 -28 22 -25 23 -205 1 -228 -24 -24 -8 -33
61 -33 67 0 82 13 48 40 -10 9 -14 26 -12 49 3 31 7 36 32 39 15 2 39 1 52 -2
20 -5 24 -13 24 -45 0 -25 -5 -41 -15 -45 -8 -3 -15 -12 -15 -21 0 -12 14 -15
70 -15 72 0 89 12 55 40 -23 19 -21 198 2 215 9 7 14 19 10 29 -9 23 -125 23
-134 0 -4 -10 0 -20 10 -26 11 -6 17 -22 17 -43 l0 -35 -55 0 -55 0 0 35 c0
22 6 38 15 41 8 4 15 15 15 25 0 17 -8 19 -64 19 -36 0 -68 -5 -71 -11z"/>
<path d="M4950 1450 c0 -10 7 -23 17 -28 15 -9 15 -18 3 -103 -7 -52 -17 -98
-21 -104 -5 -5 -9 -17 -9 -27 0 -15 9 -18 50 -18 40 0 50 3 50 16 0 9 -7 22
-16 29 -14 9 -15 22 -9 74 4 34 12 60 17 59 5 -2 23 -45 39 -96 29 -88 31 -92
59 -92 36 0 39 5 70 108 14 46 30 84 35 85 6 1 13 -27 17 -63 7 -58 6 -67 -12
-82 -35 -29 -24 -38 45 -38 36 0 65 3 65 8 0 4 -7 26 -15 49 -20 57 -32 203
-16 203 6 0 11 9 11 20 0 19 -5 21 -57 18 l-58 -3 -29 -98 c-17 -53 -35 -96
-40 -94 -6 2 -24 47 -41 100 l-30 97 -62 0 c-56 0 -63 -2 -63 -20z"/>
<path d="M3326 861 c-3 -5 5 -33 18 -62 12 -30 38 -96 56 -146 32 -91 33 -93
65 -93 40 0 43 3 89 120 21 52 47 112 57 133 11 21 17 43 14 48 -4 5 -31 9
-61 9 -59 0 -72 -16 -33 -41 l20 -14 -28 -80 c-15 -44 -32 -78 -38 -76 -5 2
-22 38 -37 79 -25 67 -26 77 -13 92 28 31 18 40 -44 40 -33 0 -62 -4 -65 -9z"/>
<path d="M4071 862 c-39 -8 -49 -23 -26 -42 22 -18 22 -220 0 -220 -8 0 -15
-9 -15 -20 0 -18 7 -20 70 -20 72 0 89 12 55 40 -17 14 -20 75 -5 85 10 6 64
-71 76 -107 4 -13 15 -18 45 -18 21 0 39 3 39 8 0 4 -16 33 -35 64 -34 57 -34
58 -15 76 45 41 44 112 -1 140 -24 15 -139 24 -188 14z m138 -56 c7 -8 11 -27
9 -43 -3 -24 -8 -28 -40 -31 l-38 -3 0 45 c0 44 1 46 29 46 16 0 34 -6 40 -14z"/>
<path d="M4463 863 c-34 -7 -73 -52 -73 -85 0 -46 16 -66 81 -99 71 -35 78
-62 17 -67 -28 -2 -42 2 -55 17 -10 12 -23 21 -30 21 -13 0 -29 -67 -19 -78 4
-4 40 -8 79 -10 82 -4 132 18 143 63 12 47 -3 70 -64 103 -67 36 -87 55 -78
77 8 23 51 18 85 -11 37 -30 51 -25 51 21 0 31 -4 35 -37 44 -38 11 -60 12
-100 4z"/>
<path d="M2330 841 c0 -11 5 -23 10 -26 6 -3 10 -36 10 -73 0 -131 26 -173
114 -180 104 -8 156 50 156 177 0 38 5 73 10 76 6 3 10 15 10 26 0 17 -7 19
-59 19 -68 0 -82 -12 -52 -44 17 -18 21 -35 21 -83 0 -77 -12 -111 -44 -119
-54 -13 -86 38 -86 138 0 37 5 51 20 60 11 7 20 21 20 30 0 15 -10 18 -65 18
-58 0 -65 -2 -65 -19z"/>
<path d="M2720 841 c0 -11 5 -23 10 -26 6 -3 10 -50 10 -105 0 -55 -4 -102
-10 -105 -5 -3 -10 -15 -10 -26 0 -16 7 -19 55 -19 60 0 70 13 35 45 -16 15
-20 31 -20 83 0 78 2 77 96 -50 52 -69 71 -88 88 -86 20 3 21 10 26 132 4 91
9 131 18 134 6 2 12 12 12 23 0 16 -7 19 -55 19 -57 0 -67 -9 -41 -39 16 -19
30 -117 18 -125 -5 -3 -39 33 -76 79 -66 84 -68 85 -112 85 -37 0 -44 -3 -44
-19z"/>
<path d="M3110 841 c0 -10 7 -21 15 -25 12 -4 15 -26 15 -106 0 -80 -3 -102
-15 -106 -8 -4 -15 -15 -15 -25 0 -17 8 -19 70 -19 75 0 88 11 50 43 -17 14
-20 29 -20 107 0 78 3 92 21 109 31 29 15 41 -57 41 -56 0 -64 -2 -64 -19z"/>
<path d="M3700 846 c0 -7 7 -19 15 -26 12 -10 15 -36 15 -116 0 -86 -3 -104
-15 -104 -8 0 -15 -9 -15 -20 0 -19 7 -20 125 -20 l125 0 0 40 c0 45 -16 52
-45 20 -14 -15 -29 -20 -54 -18 -35 3 -36 4 -36 43 l0 40 48 -3 c48 -4 48 -4
45 25 -3 27 -5 28 -50 25 l-48 -3 0 45 c0 45 0 46 33 46 21 0 41 -8 52 -20 23
-25 55 -27 50 -2 -2 9 -4 27 -4 40 -1 22 -3 22 -121 22 -95 0 -120 -3 -120
-14z"/>
<path d="M4690 841 c0 -10 7 -21 15 -25 12 -4 15 -26 15 -106 0 -80 -3 -102
-15 -106 -8 -4 -15 -15 -15 -25 0 -17 8 -19 70 -19 75 0 88 11 50 43 -17 14
-20 29 -20 107 0 78 3 93 20 107 38 32 25 43 -50 43 -62 0 -70 -2 -70 -19z"/>
<path d="M4910 820 c0 -45 10 -49 47 -20 48 38 53 30 53 -89 0 -100 -2 -109
-20 -114 -11 -3 -20 -12 -20 -21 0 -13 13 -16 75 -16 80 0 90 7 58 43 -14 15
-18 38 -19 106 0 47 1 92 4 99 6 18 26 15 55 -8 37 -29 47 -25 47 20 l0 40
-140 0 -140 0 0 -40z"/>
<path d="M5266 852 c-2 -4 20 -46 50 -92 59 -94 69 -141 34 -160 -11 -6 -20
-17 -20 -25 0 -12 16 -15 75 -15 80 0 93 10 55 43 -36 31 -26 75 35 161 31 42
53 81 50 87 -4 5 -28 9 -56 9 -52 0 -61 -10 -34 -40 13 -14 12 -20 -5 -48 -24
-40 -33 -40 -61 -1 -18 26 -20 35 -11 50 7 10 12 23 12 29 0 12 -116 14 -124
2z"/>
</g>
</svg>
